<?xml version="1.0" encoding="UTF-8"?><svg id="Layer_2" xmlns="http://www.w3.org/2000/svg" viewBox="0 0 89.85 39.77"><defs><style>.cls-1{fill:#fff;stroke-width:0px;}</style></defs><g id="Layer_1-2"><path class="cls-1" d="m18.03,29.23c-6.45-3.13-7.57-5.76-7.57-11.56,0-1.32.06-2.8.12-4.48,0,0,.09-2.41.1-2.87h14.68c.02.46.1,2.87.1,2.87.07,1.69.12,3.17.12,4.49,0,5.79-1.12,8.43-7.57,11.55h0Zm7.95-16.02l-.12-3.39h-15.67s-.12,3.39-.12,3.39c-.35,9.11-.49,12.52,7.83,16.52l.12.06.12-.06c8.32-4,8.18-7.41,7.83-16.52h0Z"/><path class="cls-1" d="m15.96,15.36h-.22v2.28h1.91s.1.21.36.21.36-.21.36-.21c.35,0,1.93,0,1.93,0v-2.28h-.24s0,0,0,0h0v2.05s-.13.12-.42.12c-.35,0-.74-.15-1.1-.15s-.49.17-.53.2c0,0-.18-.2-.51-.2s-.76.14-1.17.14c-.21,0-.33-.1-.36-.11v-2.05s0,0,0,0c0,0,0,0,0,0h0Z"/><path class="cls-1" d="m19.62,15.74c-.22.08-.46.02-.7-.03-.28-.07-.54-.13-.77.02v-.12c.24-.14.52-.07.79,0,.24.06.47.12.68.03v.11h0Zm0,.51c-.22.11-.46.05-.7-.01-.28-.07-.54-.13-.77.02v-.12c.24-.14.52-.07.79,0,.24.06.47.14.68.03v.09h0Zm0,.56c-.22.09-.46.03-.7-.03-.28-.07-.54-.13-.77.02v-.12c.24-.14.52-.08.79,0,.24.06.47.12.68.03v.11h0Zm.44-1.57c-.1,0-.23-.11-.27-.23l-.05.04c-.24.19-.52.12-.81.05-.31-.08-.6-.14-.88.11v2.23h0c.12-.12.23-.2.41-.2.29,0,.61.13.88.12.25,0,.41-.13.43-.14v-2.06c.04.11.16.2.26.19h0v-.11h0Z"/><path class="cls-1" d="m16.4,16.68c.21.11.44.06.69,0,.27-.07.54-.13.79,0v.12c-.23-.16-.5-.09-.77-.02-.24.06-.48.12-.7.01v-.11h0Zm0-.52c.21.09.44.03.69-.03.27-.07.54-.13.79,0v.12c-.23-.15-.5-.09-.77-.02-.24.06-.48.12-.7.03v-.11h0Zm0-.53c.21.09.44.03.69-.03.27-.07.54-.13.79,0v.11c-.23-.15-.5-.09-.77-.02-.24.06-.48.12-.7.03v-.1h0Zm.26,1.73c.27,0,.6-.13.88-.13s.42.2.42.2h0v-2.23c-.27-.25-.57-.18-.88-.11-.29.07-.57.14-.81-.05l-.05-.04c-.05.11-.17.22-.27.23v.11h0c.1,0,.21-.1.27-.21v2.06s.17.16.43.16h0Z"/><path class="cls-1" d="m11.23,10.89h.25v3.7h-.39l.14-3.7h0Zm12.86,1.91l.02-.03-.02-.03v-1.86h.32v3.7h-.32v-1.78h0Zm-.46.53l.32-.37v1.62h-.32v-1.25h0Zm-.46.53l.32-.37v1.08h-.32v-.72h0Zm-.46.53l.32-.37v.55h-.32v-.18h0Zm-.46-.36l.32.36v.18h-.32v-.54h0Zm-.46-.52l.32.36v.7h-.32v-1.06h0Zm-.46-.52l.32.36v1.22h-.32v-1.58h0Zm.25-.23c0,.05-.04.09-.09.09s-.09-.04-.09-.09.04-.09.09-.09.09.04.09.09h0Zm.07-.59l-.32.36v-1.66h.32v1.3h0Zm.46-.52l-.32.36v-1.14h.32v.78h0Zm.46-.52l-.32.36v-.62h.32v.26h0Zm.46.37l-.32-.37v-.26h.32v.63h0Zm.46.53l-.32-.37v-.79h.32v1.16h0Zm-.32,1.14v-.81l.32.37v.08l-.32.36h0Zm0,.22s.04-.09.09-.09.09.04.09.09-.04.09-.09.09-.09-.04-.09-.09h0Zm0-1.3s.04-.09.09-.09.09.04.09.09-.04.09-.09.09-.09-.04-.09-.09h0Zm-.46,1.6v-1.86l.32.37v1.13l-.32.36h0Zm-.07-2.35c.05,0,.09.04.09.09s-.04.09-.09.09-.09-.04-.09-.09.04-.09.09-.09h0Zm-.39.84l.32-.36v1.86l-.32-.36v-1.14h0Zm-.34-.08c0-.05.04-.09.09-.09s.09.04.09.09-.04.09-.09.09-.09-.04-.09-.09h0Zm.18,1.3c0,.05-.04.09-.09.09s-.09-.04-.09-.09.04-.09.09-.09.09.04.09.09h0Zm-.31-.59v-.1l.32-.36v.82l-.32-.36h0Zm.85,1.37c-.05,0-.09-.04-.09-.09s.04-.09.09-.09.09.04.09.09-.04.09-.09.09h0Zm1.24-1.42c0,.05-.04.09-.09.09s-.09-.04-.09-.09.04-.09.09-.09.09.04.09.09h0Zm-.25-.56v-1.32h.32v1.69l-.32-.37h0Zm-2.77-1.32h.32v1.82l-.06.07.06.07v1.74h-.32v-3.7h0Zm-.46,0h.32v3.7h-.32v-3.7h0Zm-.46,0h.32v3.7h-.32v-3.7h0Zm-.46,3c.14-.16.25-.34.32-.54v1.23h-.32v-.7h0Zm-.46.38c.12-.07.22-.14.32-.23v.55h-.32v-.32h0Zm-2.31-.24c.1.09.2.17.32.23v.32h-.32v-.55h0Zm-.46-.7c.07.2.18.38.32.55v.7h-.32v-1.25h0Zm.34-1.55c-.15.16-.27.34-.34.54v-1.43h.32v.9h.02Zm.44-.34c-.12.06-.22.13-.32.22v-.77h.32v.55h0Zm.46-.18c-.11.03-.22.07-.32.11v-.49h.32v.37h0Zm.46-.07c-.11,0-.22.01-.32.03v-.33h.32v.3h0Zm.46.03c-.1-.02-.21-.03-.32-.03v-.3h.32v.33h0Zm.46.15c-.1-.05-.21-.08-.32-.11v-.37h.32v.48h0Zm.46.28c-.1-.08-.21-.15-.32-.22v-.55h.32v.76h0Zm.46.65c-.07-.19-.18-.36-.32-.51h0v-.91h.32v1.41h0Zm-4.02-1.41h.32v3.7h-.32v-3.7h0Zm-.46,0h.32v3.7h-.32v-3.7h0Zm-.46,1.91l.02-.03-.02-.03v-1.86h.32v3.7h-.32v-1.78h0Zm-.46.53l.32-.37v1.62h-.32v-1.25h0Zm-.46.53l.32-.37v1.08h-.32v-.72h0Zm-.46.53l.32-.37v.55h-.32v-.18h0Zm-.46-.36l.32.36v.18h-.32v-.54h0Zm-.46-.52l.32.36v.7h-.32v-1.06h0Zm-.46-.52l.32.36v1.22h-.32v-1.58h0Zm-.14-.3l-.06.07.06.07v1.74h-.32v-3.7h.32v1.82h0Zm.39.07c0,.05-.04.09-.09.09s-.09-.04-.09-.09.04-.09.09-.09.09.04.09.09h0Zm.07-.59l-.32.36v-1.66h.32v1.3h0Zm.46-.52l-.32.36v-1.14h.32v.78h0Zm.46-.52l-.32.36v-.62h.32v.26h0Zm.46.37l-.32-.37v-.26h.32v.63h0Zm.46.53l-.32-.37v-.79h.32v1.16h0Zm-.32,1.14v-.81l.32.37v.08l-.32.36h0Zm0,.22s.04-.09.09-.09c.05,0,.09.04.09.09s-.04.09-.09.09-.09-.04-.09-.09h0Zm0-1.3s.04-.09.09-.09c.05,0,.09.04.09.09s-.04.09-.09.09-.09-.04-.09-.09h0Zm-.46,1.6v-1.86l.32.37v1.13l-.32.36h0Zm-.07-2.35c.05,0,.09.04.09.09s-.04.09-.09.09-.09-.04-.09-.09.04-.09.09-.09h0Zm-.39.84l.32-.36v1.86l-.32-.36v-1.14h0Zm-.34-.08c0-.05.04-.09.09-.09s.09.04.09.09-.04.09-.09.09-.09-.04-.09-.09h0Zm.18,1.3c0,.05-.04.09-.09.09s-.09-.04-.09-.09.04-.09.09-.09.09.04.09.09h0Zm-.31-.59v-.1l.32-.36v.82l-.32-.36h0Zm.85,1.37c-.05,0-.09-.04-.09-.09s.04-.09.09-.09.09.04.09.09-.04.09-.09.09h0Zm1.24-1.42c0,.05-.04.09-.09.09s-.09-.04-.09-.09.04-.09.09-.09.09.04.09.09h0Zm-.25-.56v-1.32h.32v1.69l-.32-.37h0Zm4.16,2.08s.12-.05.2-.1c.07-.04.13-.1.19-.15,0,0,0,0,0,0,.03,0,.05-.02.06-.05.28-.26.44-.6.44-.92,0-.68-.65-1.24-1.42-1.24s-1.42.56-1.42,1.24c0,.31.15.65.43.91,0,.03.03.06.07.06,0,0,0,0,0,0,.06.05.12.11.19.15.08.05.14.08.19.1v.3h-.32v-.35h-.02v-.02s-.03,0-.05-.02c-.38-.28-.61-.69-.61-1.1,0-.75.7-1.37,1.53-1.37s1.53.61,1.53,1.37c0,.41-.24.82-.61,1.1-.02.01-.04.02-.05.02v.02h-.02v.35h-.32v-.29h0Zm.32-.32s-.1.08-.15.11c-.07.04-.13.07-.17.09v-1.69c.12.05.23.12.32.2,0,0,0,0,0,0v1.27s0,0,0,0h0Zm.14-1.14c.12.15.19.32.19.51,0,.17-.08.34-.19.48v-.99h0Zm-.92-.45c.11,0,.22.02.32.05v2.14h-.32v-2.19h0Zm-.46.06c.1-.03.21-.05.32-.05v2.19h-.32v-2.14h0Zm-.46.25c.09-.08.2-.15.32-.2v1.68s-.1-.05-.17-.09c-.05-.03-.11-.07-.15-.12h0v-1.26s0,0,0,0h0Zm-.32.65c0-.18.07-.35.18-.5v.97c-.11-.14-.18-.3-.18-.47h0Zm8.16,1.23h-.45v-3.7h.3l.15,3.7h0Zm-.01-3.84h-13.89l-.15,3.98h14.21l-.16-3.98h0Z"/><path class="cls-1" d="m24.46,22.85l-.67-.4h.79c-.04.13-.07.27-.12.4h0Zm-12.99-.4h.79l-.67.4c-.05-.13-.08-.26-.12-.4h0Zm-.02-7.07h-.44c0-.09,0-.17,0-.26l.44.26h0Zm13.59,0h-.5l.49-.29c0,.1,0,.19,0,.29h0Zm.04,1.53c0,.11,0,.22,0,.32h-3.68l.54-.32h3.13Zm0-.46c0,.11,0,.21,0,.32h-2.89l.55-.32h0s2.34,0,2.34,0h0Zm-.01-.46c0,.11,0,.22.01.32h-2.1l.55-.32h0s1.54,0,1.54,0h0Zm0-.14h-1.3l.55-.33h0s.74,0,.74,0c0,.11,0,.21,0,.32h0Zm-4.44,1.85l.54-.32h3.93c0,.11,0,.21,0,.32h-4.47Zm-.78.46l.54-.32h4.71c0,.11,0,.22,0,.32h-5.25Zm-.78.46l.54-.32h5.49c0,.11,0,.21,0,.32h-6.03Zm-.78.46l.54-.32h6.27c0,.11,0,.21-.01.32h-6.8Zm-7.27.46c0-.1,0-.21-.01-.32h6.77l-.54.32h-6.21Zm.04.46c0-.11-.02-.21-.03-.32h5.96l-.54.32h-5.39Zm.04.46c-.01-.1-.02-.21-.03-.32h5.14l-.54.32h-4.56Zm.06.46c-.02-.11-.03-.21-.04-.32h4.3l-.54.32h-3.72Zm.07.46c-.02-.1-.04-.21-.05-.32h3.46l-.54.32h-2.86Zm5.99-2.63l.55.32h-6.77c0-.11,0-.21-.01-.32h6.24Zm-.79-.46l.54.32h-6c0-.11,0-.21,0-.32h5.46Zm-.79-.46l.55.32h-5.22c0-.11,0-.21,0-.32h4.67Zm-1.57-.92l.54.32h-3.64c0-.1,0-.21,0-.32h3.09Zm-.79-.46l.55.32h-2.85c0-.11,0-.21,0-.32h2.29Zm-.79-.46l.55.32h-2.05c0-.1,0-.21.01-.32h1.49Zm-.24-.14h-1.25c0-.11,0-.21.01-.32h.69l.55.32h0Zm-1.28,1.53h3.88l.55.32h-4.43c0-.11,0-.21,0-.32h0Zm.35,4.48c-.02-.11-.05-.21-.07-.32h2.59l-.54.32h-1.98Zm.03.14h1.71l-.54.32h-1.08c-.03-.11-.06-.21-.09-.32h0Zm7.48-2.45l-.55-.32h6.79c0,.11,0,.22-.01.32h-6.23Zm.79.46l-.55-.32h5.98c0,.11-.02.21-.02.32h-5.41Zm.79.46l-.55-.32h5.16c0,.11-.02.22-.03.32h-4.58Zm.79.46l-.55-.32h4.32c-.01.11-.03.21-.04.32h-3.73Zm.79.46l-.54-.32h3.47c-.02.11-.03.21-.05.32h-2.87Zm.79.46l-.54-.32h2.6c-.02.11-.04.21-.07.32h-1.99Zm.24.14h1.72c-.03.11-.06.21-.09.32h-1.08l-.55-.32h0Zm2.17-7.14l-7.16,4.22-7.13-4.18v.12c-.13,3.38-.15,5.93.61,7.98l.03.08,6.49-3.83,6.52,3.83.03-.08c.76-2.04.73-4.61.61-8.01v-.12h0Z"/><path class="cls-1" d="m16.95,21.33c-.17-.01-.41-.07-.41-.3,0-.09.04-.17.04-.17-.1.02-.21.14-.2.29.02.18.18.29.51.3.27,0,.63-.07.85-.13.16-.04.21-.09.21-.09-.06,0-.13,0-.21,0-.26.04-.59.09-.8.08h0Z"/><path class="cls-1" d="m18.52,23.04v.19c.12-.02.24-.08.3-.17-.12.02-.22,0-.3-.03h0Z"/><path class="cls-1" d="m18.98,22.83s.14-.09.15-.12c-.04,0-.11,0-.15,0v.11h0Z"/><path class="cls-1" d="m19.9,26.76c.13.01.25,0,.36-.04v-.33c-.05-.02-.1-.04-.12-.08.04,0,.08,0,.12,0v-1.91c-.1-.11-.22-.2-.36-.27v2.63h0Z"/><path class="cls-1" d="m18.52,23.49v2.01c.06,0,.12.02.17.04,0,0,.12.05.12.04-.05-.1,0-.29.04-.37.01-.03.02-.05.03-.07v-1.35s0,0-.01,0c-.14-.07-.27-.15-.35-.3h0Z"/><path class="cls-1" d="m18.12,22.09s-.05.08-.06.14v2.53c.1-.03.2-.06.32-.07-.13.06-.24.13-.32.17v1.27c.09,0,.18,0,.26-.03.04-.01.07-.04.1-.06v-.11s-.08.03-.13.02c-.13-.01-.17-.12-.17-.2,0-.16.09-.23.28-.24h.02v-2.1s-.09-.02-.14-.04c-.14-.06-.18-.18-.21-.27.08.08.15.14.35.15v-.25c-.08-.05-.12-.15-.12-.22.02.02.08.05.12.05v-.39c-.16-.05-.28-.17-.3-.33h0Z"/><path class="cls-1" d="m19.33,22.33c-.1.02-.2,0-.28-.05-.03-.02-.05-.04-.07-.06v.28s.03,0,.04,0c.13,0,.26-.06.3-.17h0Z"/><path class="cls-1" d="m18.52,22.44v.42c.11.04.24.04.36,0v-.17s-.06-.02-.09-.04c-.07-.06-.12-.15-.12-.27.05.05.12.08.21.1v-.43c-.11-.02-.21-.07-.26-.14-.07.11-.11.35-.1.52h0Z"/><path class="cls-1" d="m20.37,24.54v1.76s.09-.03.13-.05c.13-.07.2-.18.24-.25v-.3c-.11.07-.19.17-.31.19.07-.19.1-.44.1-.65.07.03.14.04.21.05v-.3c-.09,0-.19-.03-.24-.07-.02-.15-.06-.28-.13-.39h0Z"/><path class="cls-1" d="m17.81,26.47s.13-.01.15-.02v-.1s-.15.07-.15.12h0Z"/><path class="cls-1" d="m17.6,22.23s0,.02,0,.02v2.59c.13,0,.25-.03.36-.06v-2.22c-.19-.04-.31-.16-.36-.33h0Z"/><path class="cls-1" d="m14.82,25.89v.04s.08-.02.15-.02c.08,0,.15.02.15.02.01.04.04.07.06.1v-.34c-.16.01-.3.09-.36.2h0Z"/><path class="cls-1" d="m17.04,24.72v-.15s-.12.08-.13.08c.02.03.1.05.13.07h0Z"/><path class="cls-1" d="m20.83,24.2s0,0,0,0c.13.11.25.23.29.4.04.16-.04.27-.1.32-.04.04-.12.05-.2.06v.31c.14,0,.26-.03.36-.1v-1.12c-.11-.11-.24-.21-.36-.3v.41h0Z"/><path class="cls-1" d="m17.35,21.47s-.04.09-.07.13c-.05-.01-.1-.02-.15-.03v2.29s.07.11.09.15c.03.15,0,.32-.09.46v.31c.1.05.21.07.34.08,0,0,.02,0,.02,0v-2.23s-.05-.02-.08-.04c-.11-.07-.21-.26-.2-.35.06.1.15.18.24.24,0-.09.01-.17.04-.24v-.6s-.06,0-.08-.02c-.02-.04-.05-.12-.06-.16h0Z"/><path class="cls-1" d="m16.9,21.59c-.06.06-.06.14,0,.21.08,0,.12.04.14.09v-.34h0c-.06,0-.11.02-.13.04h0Z"/><path class="cls-1" d="m18.98,24.96s.11-.12.12-.16c0,.03.01.11,0,.14,0,.08-.11.15-.13.21v.4s.04.06.06.08c.09.07.2.11.3.18v-1.85c-.13-.03-.25-.07-.36-.13v1.12h0Z"/><path class="cls-1" d="m17.81,21.44c-.02.05-.02.15-.04.21-.03,0-.07.01-.1.01-.02-.03-.05-.1-.07-.15v.56s.05-.05.08-.07c0,.24.09.39.29.44v-.87s-.04.02-.06.04c-.03-.05-.06-.11-.09-.16h0Z"/><path class="cls-1" d="m19.44,23.98v1.9s.05.06.07.09c.06.15,0,.27-.07.37v.72c.12.03.24.03.36.02v-3c-.08-.03-.17-.06-.26-.08-.04,0-.07-.02-.11-.03h0Z"/><path class="cls-1" d="m17.6,26.75v.13c.06,0,.12,0,.17.04.02.07.1.1.19.12v-.35s-.1,0-.13.03c-.08-.02-.16,0-.23.03h0Z"/><path class="cls-1" d="m20.37,22.3c.13.03.25.08.36.15v-.32c-.11-.05-.24-.09-.36-.12v.29h0Z"/><path class="cls-1" d="m18.26,26.29c-.07-.02-.14-.01-.2,0v.16s.05.01.06.03c0,.06.05.11.07.13.06.06.18.1.24.17v-.48s-.1-.03-.17-.02h0Z"/><path class="cls-1" d="m17.16,25.28c.02.18.12.3.07.48-.02.06-.05.11-.1.14v.44c.07.11.21.21.36.22v-1.55c-.09,0-.19,0-.28-.05-.07.08-.08.18-.07.31h0Z"/><path class="cls-1" d="m20.83,22.18v.33c.14.1.26.21.36.32v-.4c-.08-.07-.16-.13-.24-.18-.04-.03-.08-.05-.12-.07h0Z"/><path class="cls-1" d="m20.37,23.47v.4c.12.08.25.17.36.26v-.41c-.08-.05-.15-.1-.23-.16-.05-.03-.09-.06-.14-.1h0Z"/><path class="cls-1" d="m16.21,25.79v.88s.02-.01.04-.01c.02,0,.05.05.08.09.06.07.14.14.25.18v-.92c-.11-.02-.21-.06-.28-.11-.04-.03-.06-.06-.08-.1h0Z"/><path class="cls-1" d="m19.81,27.31v-.09c-.15-.01-.31-.05-.36-.15v.32c.14,0,.27,0,.36-.07h0Z"/><path class="cls-1" d="m16.67,26.95c.05.01.11.01.17,0,.07,0,.14-.04.18-.09-.15-.03-.25-.12-.3-.26.08.06.19.11.31.13v-.77c-.1.05-.24.06-.36.05v.93h0Z"/><path class="cls-1" d="m18.52,26.4v1.14c.1-.07.22-.12.36-.15v-.64s-.07,0-.1,0c-.12-.04-.18-.22-.26-.34h0Z"/><path class="cls-1" d="m18.06,26.72v.34s.08,0,.12.01c.05,0,.1.01.13.05-.04.04-.09.07-.15.08-.03,0-.06,0-.09,0v.21c.06-.02.13-.03.2,0-.05.07-.12.1-.2.13v.34c.16-.02.25-.13.33-.23,0,0,.02-.02.03-.03v-.8s-.04.01-.06.02c-.13,0-.2-.08-.3-.13h0Z"/><path class="cls-1" d="m16.68,22.35s0,0,0,0v1.81c.09.11.11.33.05.46.1-.02.18-.09.25-.16.03-.03.05-.06.07-.08v-2.24c-.09.21-.27.23-.36.22h0Z"/><path class="cls-1" d="m18.98,26.72v.66s.03,0,.05,0c.1,0,.21,0,.31.01v-.93c-.1.1-.21.19-.34.26,0,0-.01,0-.02.01h0Z"/><path class="cls-1" d="m17.65,27.18s-.04.01-.06.02v.22s.02,0,.03,0c.02.02.08.05.14.06.07,0,.13-.02.19-.04v-.26c-.06-.01-.11-.03-.17-.04-.04,0-.09.01-.14.04h0Z"/><path class="cls-1" d="m16.21,24.3c.08.09.11.24.05.4-.01.03-.04.07-.04.08.1-.01.17-.08.24-.14.05-.04.09-.11.12-.18v-1.27c-.12.01-.24,0-.36-.03v1.14h0Z"/><path class="cls-1" d="m17.6,26.24c.06-.07.19-.1.28-.11.03,0,.06,0,.09,0v-1.23c-.13.06-.25.1-.36.11v1.23h0Z"/><path class="cls-1" d="m19.9,23.09v.46c.12.09.24.18.36.26v-.4c-.1-.07-.19-.14-.27-.22-.03-.03-.06-.06-.09-.09h0Z"/><path class="cls-1" d="m13.5,22.68s.05-.04.11-.06c.08-.02.15-.02.19-.01v-.26c-.15.04-.28.16-.3.33h0Z"/><path class="cls-1" d="m15.65,27.17v-.36c-.12.06-.11.29,0,.36h0Z"/><path class="cls-1" d="m13.7,24.98c-.08.08-.14.22-.11.38.01.08.07.11.07.11.02-.07.07-.15.15-.19v-.39s-.08.05-.1.09h0Z"/><path class="cls-1" d="m13.97,22.08s.15-.06.29,0v-.22c-.14.02-.26.11-.29.22h0Z"/><path class="cls-1" d="m15.29,21.65v.36c.05-.07.11-.14.1-.26,0-.04-.06-.08-.1-.11h0Z"/><path class="cls-1" d="m19.61,21.13c0-.1-.02-.19-.08-.24-.02.04-.05.08-.09.11v.4s0,0,0,0c.07-.05.16-.17.16-.27h0Z"/><path class="cls-1" d="m16.57,22.68v-.36c-.07-.02-.13-.05-.16-.09-.07.2.01.37.16.45h0Z"/><path class="cls-1" d="m19.24,20.67s-.11.07-.26.09v.23c.11-.03.2-.09.24-.16.02-.03.03-.11.02-.16h0Z"/><path class="cls-1" d="m20.89,25.65s-.04,0-.06.01v.16s.07-.07.11-.1c.04-.03.09-.05.13-.06-.03-.02-.12-.03-.18-.02h0Z"/><path class="cls-1" d="m20.37,26.42v.26s.04-.01.05-.02c.12-.07.24-.18.28-.31-.02,0-.05.02-.08.04-.07.03-.16.04-.25.04h0Z"/><path class="cls-1" d="m21.29,25.13s.05-.05.06-.07c.1-.13.12-.29.12-.4,0-.19-.09-.34-.19-.46v.94h0Z"/><path class="cls-1" d="m19.9,26.85v.23c.15-.03.28-.1.36-.2-.13.02-.26.01-.36-.03h0Z"/><path class="cls-1" d="m17.85,27.71c-.07.05-.18.22-.16.35.01.07.06.1.06.1.03-.11.11-.21.2-.25v-.32s-.08.07-.11.12h0Z"/><path class="cls-1" d="m17.33,26.93s.12-.02.16-.03v-.1s-.15.09-.16.12h0Z"/><path class="cls-1" d="m17.13,26.47v.28s.08,0,.12,0c.02,0,.08-.02.09-.05-.11-.03-.2-.11-.22-.23h0Z"/><path class="cls-1" d="m17.3,27.5s.05-.04.12-.07c.02-.01.05-.02.08-.02v-.17c-.1.05-.19.15-.2.26h0Z"/><path class="cls-1" d="m14.82,24.2v.73c.15-.03.28-.1.34-.16-.03.1-.05.18-.11.26-.02.03-.08.08-.1.1.08,0,.16,0,.23-.04v-1.11c-.12.07-.23.16-.35.21,0,0-.01,0-.02,0h0Z"/><path class="cls-1" d="m15.01,23.66s.11.05.18.05v-.14s-.03.02-.04.03c-.07.04-.14.05-.14.05h0Z"/><path class="cls-1" d="m13.98,23.65s-.06,0-.08,0v.24s.02,0,.02.01c.02.22.28.23.34.43v-.62s-.1-.06-.17-.06c-.02,0-.09-.01-.11-.01h0Z"/><path class="cls-1" d="m14.59,23.55s.09.01.14.01v-.16c-.07.05-.15.09-.24.11.02.02.06.03.1.04h0Z"/><path class="cls-1" d="m15.29,25.04s0,0,0,0c.14-.09.26-.2.36-.33v-.96c-.13.05-.25.11-.36.17v1.12h0Z"/><path class="cls-1" d="m15.29,25.3v.07c.18,0,.28.08.28.08.01.07.04.11.08.15,0,0,0,0,0,0v-.41c-.1,0-.22.02-.29.05-.03.02-.05.03-.07.05h0Z"/><path class="cls-1" d="m19.44,21.83c.11-.11.13-.26.13-.26-.03.02-.07.04-.13.06v.2h0Z"/><path class="cls-1" d="m15.29,25.68v.43c.06.03.14.06.22.06.05,0,.1,0,.14,0v-.34c-.08-.06-.16-.13-.26-.15-.03,0-.07,0-.1,0h0Z"/><path class="cls-1" d="m21.29,22.93s.06.07.09.1c.06.07.28.32.19.49-.02.04-.09.07-.13.07-.08,0-.14-.08-.08-.2-.02,0-.04.02-.06.04v.38c.06.04.13.04.19.03.07-.01.13-.05.17-.11-.11.13-.12.31.01.49v-1.31c-.12-.14-.24-.27-.36-.39v.41h0Z"/><path class="cls-1" d="m22.32,24.04c0-.09-.07-.15-.11-.2v.88s.08.01.11.02c.09,0,.17,0,.26-.02v-.37c-.06.06-.14.1-.22.09-.17-.03-.03-.25-.04-.39h0Z"/><path class="cls-1" d="m21.89,23.22c-.05-.06-.09-.12-.14-.18v1.38s.03.05.05.07c.1.11.21.16.31.2v-1.25c-.08-.06-.16-.14-.22-.22h0Z"/><path class="cls-1" d="m22.93,23.7c.13.15.05.47-.08.55.04-.15-.04-.28-.17-.3v.74c.14-.04.26-.11.35-.23,0,0,0-.01,0-.01v-.72c-.05-.05-.11-.08-.18-.09.02.02.05.04.07.07h0Z"/><path class="cls-1" d="m23.14,24.28c.14-.14.13-.31,0-.44v.44h0Z"/><path class="cls-1" d="m22.5,23.46c-.06.06-.18.07-.28.04v.23s.04,0,.06,0c.12,0,.22-.07.26-.12.02-.03.03-.06.04-.1v-.12s0-.02,0-.02c-.02.03-.05.07-.08.1h0Z"/><path class="cls-1" d="m13.58,23.87c.06-.01.15-.02.22,0v-.18c-.1.04-.18.1-.22.19h0Z"/><path class="cls-1" d="m14.01,23.28s.05.05.06.06c.04.02.11.04.17.04,0,0,.01,0,.02,0v-.16c-.06.03-.12.06-.19.06h-.06Z"/><path class="cls-1" d="m13.9,22.82v.33s.04.01.06.01c.1,0,.2-.05.3-.09v-.24s-.01,0-.02,0c-.11.02-.23-.03-.34-.03h0Z"/><path class="cls-1" d="m14.14,24.38c-.09-.03-.16-.05-.24-.07v.38c.08-.01.17-.03.24-.04.04,0,.08,0,.12,0v-.28s-.08.02-.13,0h0Z"/><path class="cls-1" d="m18.52,20.4v1.44s.06-.1.1-.12c.03.11.14.18.27.22v-1.18c-.14,0-.22-.06-.22-.06.06,0,.15-.04.22-.09v-.16s0,0,0,0c-.12.01-.26,0-.35-.05h0Z"/><path class="cls-1" d="m18.06,20.3v.83s.09.07.09.17c0,.08-.06.14-.09.17v.5c.04-.05.08-.1.11-.12,0,.19.09.39.26.44v-2.28c-.12.07-.29.17-.36.29h0Z"/><path class="cls-1" d="m14.41,23.93s-.02-.08-.04-.11v1.89s.03.05.06.07c.04.03.09.07.15.07-.07-.09-.05-.24,0-.34.04-.04.06-.09.08-.14.02-.1.02-.23.02-.33.01-.06,0-.08.05-.09,0,0,0,0,.01,0v-.71c-.11.02-.22-.02-.28-.11-.03-.06-.03-.12-.04-.18h0Z"/><path class="cls-1" d="m17.38,21.07s.05.15.05.15c.02-.04.05-.1.07-.15v-.76s-.04.01-.05.02c-.03.02-.09.06-.12.09-.04.04-.05.09-.08.12-.03.02-.07.03-.12.04v.55l.08.12.05-.16s.07-.02.11-.03h0Z"/><path class="cls-1" d="m15.75,25.22h0v.47s.09.07.12.12c.02.03.04.08.05.13-.06,0-.11-.01-.16-.03,0,0,0,0,0,0v.64s.06-.01.09,0c.02,0,.06.01.07.03-.03.08-.1.12-.16.15v.4s.04-.09.09-.13c.06,0,.11-.01.15-.04.05-.04.09-.1.12-.16v-1.21c-.04-.11-.08-.23-.16-.29-.05-.04-.11-.07-.2-.07h0Z"/><path class="cls-1" d="m13.9,25.25s.09-.01.13-.03c.11-.05.17-.13.23-.18v-.3c-.09.07-.24.08-.36.11v.4h0Z"/><path class="cls-1" d="m18.98,21.11v.85s.05,0,.07,0c.13,0,.22-.02.3-.06v-.25s-.06,0-.1,0c-.2,0-.26-.16-.26-.16.09.03.24.01.36-.04v-.4c-.11.05-.25.07-.36.04h0Z"/><path class="cls-1" d="m13.44,23.07v.04c.06-.02.2-.05.33-.02.01.01.02.01.03.02v-.26c-.18.02-.29.11-.36.22h0Z"/><path class="cls-1" d="m14.45,21.87s-.06,0-.09,0v.35c.07.05.17.08.22.16.02.03.02.06.02.09-.06.02-.11.02-.15,0-.03,0-.06-.02-.09-.03v.61c.06-.02.11-.04.17-.04-.05.06-.1.12-.17.16v.21c.13,0,.26-.04.36-.09v-1.27s-.05-.05-.07-.07c-.06-.06-.13-.09-.21-.09h0Z"/><path class="cls-1" d="m14.83,21.58c.08.05.19.1.23.22-.07.04-.13.11-.16.19-.02.05-.01.11,0,.18-.02-.02-.05-.04-.07-.05v1.43c.14-.02.27-.07.36-.11v-.83s-.02-.03-.03-.05c-.03-.06-.06-.15-.06-.22,0-.09.04-.15.09-.21v-.53c-.07-.03-.13-.05-.23-.05-.08,0-.13.03-.13.03h0Z"/><path class="cls-1" d="m13.9,22.29v.4s.04.02.06.02c.09.01.21,0,.3,0v-.33c-.08-.05-.16-.1-.27-.1-.03,0-.07,0-.1,0h0Z"/><path class="cls-1" d="m15.29,22.72v1h.02c.11-.01.23-.05.34-.07v-.67s-.03-.01-.04-.02c-.11-.05-.23-.14-.32-.23h0Z"/><path class="cls-1" d="m16.21,22.58h0v.37c.07.12.2.19.36.21v-.36c-.16,0-.34-.08-.36-.21h0Z"/><path class="cls-1" d="m15.75,23.02v.61c.13-.02.23-.02.32-.04-.1.04-.21.08-.32.13v1.25s.03,0,.04-.01c.14-.06.25-.19.33-.34v-1.47s-.03,0-.04-.01c-.14-.04-.23-.08-.32-.12h0Z"/><path class="cls-1" d="m13.44,24.48v.2s.04-.02.06-.03c.06-.02.11-.02.14,0,.04.04.1.06.15.06v-.4c-.06,0-.12.01-.17.05,0,0-.09.02-.2.13h0Z"/><path class="cls-1" d="m19.44,22.53v.39c.03.12.09.24.17.34.06.07.13.14.2.21v-.52s-.05-.1-.06-.16c-.02-.12,0-.23.06-.31v-.39s-.05.01-.07.03c-.15.1-.25.25-.3.42h0Z"/><path class="cls-1" d="m14.82,26.48v.12c.13-.1.24-.04.24-.04,0,.04.07.07.13.09v-.4s-.08.01-.12.04c-.1.03-.19.09-.24.19h0Z"/><path class="cls-1" d="m19.9,22.04v.33s.08-.05.12-.06c.08-.03.16-.03.25-.02v-.28s-.05,0-.07,0c-.1,0-.2.02-.3.05h0Z"/><path class="cls-1" d="m15.29,26.65s.07,0,.1,0c.09-.01.18-.06.27-.09v-.26c-.11.01-.24-.04-.36-.06v.4h0Z"/><path class="cls-1" d="m16.79,20.95s.02.09.04.11c.07.11.13.13.2.11v-.56s-.09.01-.13.02c-.08,0-.18,0-.21.06,0,0,0,0,0,0-.01.04,0,.07,0,.09.01.02.03.04.05.06.02.03.04.07.05.11h0Z"/><polygon class="cls-1" points="19.44 27.07 19.44 27.07 19.44 27.07 19.44 27.07 19.44 27.07"/><path class="cls-1" d="m17.68,20.74c-.04-.05-.04-.14-.01-.19.09.06.16.06.26.08-.08.02-.18.06-.25.11h0Zm-.08-.45v.74l.07.16s.07-.11.1-.16c.07,0,.14.02.19.06v-.81c-.05,0-.11,0-.18,0-.06,0-.13,0-.19.02h0Z"/><path class="cls-1" d="m29.62,26.53c.05-.31.08-.82.09-1.52h.33c.02.48.04.76.08.84.04.09.13.18.27.28.14.1.34.19.58.26.24.08.48.12.7.12.33,0,.63-.07.91-.23.28-.15.48-.35.61-.6.13-.25.19-.51.19-.79,0-.21-.03-.4-.1-.56-.06-.16-.16-.28-.29-.38-.13-.09-.29-.16-.48-.2-.12-.02-.36-.05-.72-.1-.36-.05-.67-.1-.92-.15-.34-.11-.59-.23-.75-.37-.16-.14-.29-.32-.39-.55-.1-.23-.15-.47-.15-.74,0-.38.1-.75.3-1.09.2-.34.5-.6.89-.79.39-.19.82-.28,1.28-.28.28,0,.58.04.91.11.33.07.63.18.92.32-.05.21-.08.4-.1.58-.02.18-.03.44-.04.78h-.33c-.01-.5-.02-.78-.04-.82-.08-.12-.19-.22-.33-.32-.34-.19-.69-.29-1.05-.29-.47,0-.85.14-1.13.43-.28.29-.42.66-.42,1.12,0,.28.05.49.15.64.1.15.28.27.54.37.18.06.47.12.88.18.41.05.78.11,1.1.17.31.09.53.2.68.33.15.13.27.29.36.5.09.2.14.44.14.72,0,.65-.27,1.22-.81,1.7-.54.48-1.23.72-2.09.72-.65,0-1.23-.13-1.76-.38h0Z"/><path class="cls-1" d="m34.79,22.94v-.21c.31-.12.56-.23.75-.33v-1.49c.34-.12.61-.24.83-.38l.12.1c-.04.27-.07.87-.12,1.79.26,0,.42,0,.47,0,.03,0,.2,0,.51,0,.17,0,.3-.01.38-.02l.03.03-.1.46c-.21,0-.39,0-.57,0s-.41,0-.72,0l-.03,1.99c0,.49,0,.78,0,.87.02.09.05.18.09.25.05.07.1.13.18.17.07.04.2.08.37.1.13,0,.24,0,.33-.02.08-.01.19-.04.31-.09l.06.19c-.15.12-.3.25-.45.38-.12.05-.24.08-.35.09-.11.01-.23.02-.37.02-.17,0-.31-.02-.41-.06-.1-.04-.2-.09-.28-.16-.08-.07-.16-.16-.21-.27-.06-.11-.09-.28-.11-.51,0-.22,0-.47.02-.73,0-.05,0-.11,0-.17v-2.03h-.2c-.16,0-.35,0-.55.02h0Z"/><path class="cls-1" d="m42.42,24.03h2.47l-1.22-2.95-1.25,2.95h0Zm-2.28,2.75v-.33c.26,0,.42-.01.48-.03.06-.02.12-.05.18-.1.05-.05.13-.18.23-.39.06-.12.27-.58.64-1.38l1.22-2.76c.13-.3.42-.98.86-2.03h.31l2.09,4.91c.34.8.57,1.3.68,1.5.06.11.13.19.2.23.07.04.24.06.5.06v.33c-.51-.03-.87-.05-1.07-.05l-1.58.05v-.33c.37,0,.59-.02.67-.04.08-.01.13-.04.16-.07.03-.03.04-.07.04-.12,0-.07-.02-.16-.07-.28l-.6-1.5h-2.83l-.53,1.26c-.09.23-.14.39-.14.5,0,.04.01.08.04.11.03.04.09.07.17.09.12.03.33.04.64.05v.33c-.55-.03-.96-.04-1.24-.04-.32,0-.66.01-1.04.04h0Z"/><path class="cls-1" d="m47.91,26.77v-.28h.47c.07,0,.12-.02.16-.04.04-.02.07-.05.09-.08.04-.07.06-.18.07-.35,0-.04,0-.51.03-1.41v-.58c0-.26,0-.54-.01-.84-.01-.19-.03-.31-.05-.34-.02-.04-.06-.06-.11-.08-.05-.02-.26-.03-.64-.02v-.28c.66-.09,1.14-.21,1.44-.36.07-.03.11-.05.13-.05s.04,0,.05.03c.01.02.02.04.02.07,0,.02,0,.05,0,.08,0,.12-.02.36-.03.74l.91-.78c.27-.1.52-.15.76-.15.26,0,.51.05.75.16.24.11.41.24.53.41.12.16.2.37.24.62.02.15.03.56.03,1.23v.87c0,.43.01.71.03.87.02.1.04.16.08.2.03.04.09.06.16.07h.52v.29c-.32-.02-.58-.03-.8-.03-.18,0-.49,0-.91.03.05-.81.07-1.32.07-1.53v-.82c0-.51-.02-.85-.06-1.01-.06-.22-.18-.39-.38-.53-.2-.13-.43-.2-.71-.2-.24,0-.47.06-.67.17-.2.11-.35.25-.43.4-.09.15-.13.41-.13.76v.59c.02.85.03,1.31.03,1.38,0,.16.03.28.06.36.01.03.03.05.06.08.03.02.07.04.12.05.02,0,.2,0,.54.01v.28c-.4-.02-.76-.03-1.08-.03-.27,0-.72,0-1.34.03h0Z"/><path class="cls-1" d="m57.74,23.21c-.22-.24-.45-.42-.7-.54-.24-.11-.48-.17-.72-.17-.27,0-.51.07-.74.21-.22.14-.4.34-.52.62-.12.28-.18.61-.18,1,0,.6.15,1.06.44,1.4.3.33.65.5,1.07.5.22,0,.42-.05.59-.14.17-.09.33-.22.46-.4.13-.18.21-.37.25-.59.03-.14.04-.5.04-1.06v-.84h0Zm-.81-3.08v-.28c.36-.04.67-.08.92-.14.25-.05.49-.12.73-.2l.06.04c-.01.28-.03.81-.04,1.61l-.02.78v3.06c0,.33,0,.62.02.87.01.24.03.39.06.43.03.05.08.08.15.11.07.03.27.06.61.09v.26c-.4-.02-.68-.03-.84-.03-.14,0-.43,0-.86.03,0-.23.02-.53.02-.91-.13.09-.31.24-.53.43-.22.19-.39.34-.52.47-.26.07-.49.1-.69.1-.37,0-.71-.09-1.02-.27-.31-.18-.55-.45-.72-.8-.17-.35-.25-.74-.25-1.17,0-.33.05-.64.15-.93.1-.29.23-.52.39-.68.09-.09.29-.23.6-.42.31-.19.57-.32.76-.4.19-.08.41-.13.63-.13.21,0,.41.03.6.08.2.05.39.13.58.23v-1.29c0-.45-.02-.73-.06-.83-.01-.04-.04-.06-.07-.08-.07-.03-.29-.05-.68-.05h0Z"/><path class="cls-1" d="m59.96,26.77v-.28c.37,0,.57-.01.6-.02.06,0,.1-.03.13-.05.03-.02.05-.05.07-.09.03-.07.05-.19.06-.35.02-.87.02-1.33.02-1.37v-.58c0-.26,0-.54-.01-.84,0-.19-.02-.31-.04-.34-.02-.04-.06-.06-.11-.08-.05-.02-.27-.03-.64-.02v-.28c.66-.09,1.14-.21,1.44-.36.06-.03.11-.05.13-.05s.04,0,.05.03c.01.02.02.04.02.07,0,.02,0,.05,0,.08-.02.2-.03.51-.03.92.15-.17.28-.34.41-.5.12-.17.21-.27.27-.32.1-.08.21-.15.34-.2.13-.05.26-.08.4-.08s.27.03.41.09l.03.07c-.05.43-.08.82-.08,1.15h-.22c-.08-.16-.16-.27-.26-.34-.1-.07-.23-.11-.37-.11-.25,0-.47.1-.64.31-.18.21-.26.52-.26.93v.5c0,.22,0,.61.02,1.18,0,.2.01.33.03.39.01.06.03.1.05.12.02.02.06.04.11.06.1.03.36.06.79.09v.28c-.57-.02-1.06-.03-1.47-.03s-.82,0-1.21.03h0Z"/><path class="cls-1" d="m64.7,24.01c.09,0,.26.02.52.03.49.02.82.03,1,.03.43,0,.72,0,.86-.03,0-.08,0-.14,0-.18,0-.51-.11-.89-.31-1.13-.21-.24-.49-.36-.84-.36-.37,0-.66.13-.89.4-.22.26-.34.68-.34,1.25h0Zm3.14,2l-.16.35c-.22.14-.39.23-.49.28-.15.07-.33.13-.53.18-.2.05-.41.07-.62.07-.43,0-.82-.09-1.17-.27-.35-.18-.62-.45-.82-.81-.19-.36-.29-.78-.29-1.26,0-.38.05-.71.15-1.02.1-.3.22-.52.35-.67.1-.11.24-.22.44-.36.2-.13.4-.24.59-.32.26-.11.54-.16.84-.16.37,0,.7.08.99.25.3.17.51.39.65.68.14.29.21.61.21.97,0,.09,0,.2-.02.33-.23.05-.45.07-.63.09-.35.03-.7.04-1.06.04h-1.57c0,.47.09.85.24,1.13.15.29.37.5.64.64.27.14.56.21.85.21.2,0,.4-.03.59-.1.2-.07.44-.18.73-.35l.08.08h0Z"/><path class="cls-1" d="m70.42,26.83l-.21-.68-.46-1.51c-.13-.44-.26-.86-.4-1.27-.14-.41-.22-.64-.27-.71-.04-.06-.1-.11-.16-.13-.06-.03-.22-.05-.47-.07v-.28c.36.02.75.03,1.16.03.44,0,.85-.01,1.22-.03v.28c-.3,0-.5.01-.59.03-.06.01-.11.04-.13.07-.03.03-.04.08-.04.12,0,.08.05.28.14.6l.46,1.58c.07.27.17.55.27.86l.37-.85.72-1.61c.17-.38.33-.77.48-1.15h.24c.22.6.36.99.44,1.18l.56,1.42c.19.48.34.83.43,1.07l.37-.96c.24-.62.42-1.15.56-1.59.08-.24.11-.41.11-.5,0-.09-.03-.16-.1-.2-.06-.04-.28-.06-.63-.07v-.28c.5.02.84.03,1.03.03.23,0,.54-.01.93-.03v.28c-.19,0-.32.02-.38.05-.07.03-.12.08-.17.15-.08.11-.22.37-.4.78l-.51,1.23-.22.55c-.04.11-.17.44-.38.99-.09.23-.16.44-.21.62h-.46l-.24-.61-1.12-2.8-.47,1.01-.55,1.23c-.13.28-.23.53-.31.73l-.16.45h-.47Z"/><path class="cls-1" d="m77.12,25.3h.29c0,.19.01.34.03.45.02.11.04.22.08.33.04.11.1.2.18.27.08.07.17.13.27.17.1.04.19.07.29.08.1.01.25.02.45.02.33,0,.61-.09.82-.26.21-.18.32-.42.32-.73,0-.14-.03-.26-.1-.36-.07-.1-.16-.19-.29-.24-.13-.06-.4-.14-.81-.23-.42-.09-.68-.16-.8-.21-.18-.07-.33-.15-.44-.25-.11-.1-.19-.22-.26-.37-.06-.15-.1-.31-.1-.49,0-.26.07-.49.2-.71.14-.22.35-.39.64-.53.29-.14.61-.2.95-.2.21,0,.45.03.72.09.27.06.49.13.66.21-.02.36-.04.73-.05,1.11h-.28c-.02-.24-.04-.39-.06-.47-.02-.08-.05-.14-.09-.2-.04-.06-.1-.12-.19-.19-.09-.07-.2-.13-.34-.18-.14-.05-.31-.08-.51-.08-.29,0-.52.09-.69.25-.18.17-.26.37-.26.6,0,.13.03.24.08.33.05.09.12.17.2.22.08.06.2.11.36.15l.81.2c.41.11.69.19.85.27.15.08.28.19.37.35.1.16.14.35.14.57,0,.44-.18.83-.55,1.15-.36.33-.85.49-1.46.49-.28,0-.65-.04-1.12-.13-.26-.05-.4-.08-.42-.1-.01,0-.02-.03-.02-.05,0-.02,0-.05,0-.08.03-.14.05-.28.06-.41,0-.13.02-.41.02-.84h0Z"/><path class="cls-1" d="m29.42,11.08v-.25c.42.02.81.03,1.17.03s.73,0,1.09-.03v.25c-.3,0-.49.02-.55.04-.07.02-.11.05-.14.09-.03.05-.05.18-.06.38,0,.05,0,.42-.02,1.1v1.43c0,.56.04.92.11,1.1.07.18.18.32.34.44.12.09.28.16.48.21.2.05.43.08.67.08.29,0,.55-.03.77-.11.22-.07.39-.16.51-.26.11-.1.2-.22.25-.34.06-.13.1-.3.12-.52.03-.22.04-.5.04-.84v-1.19c0-.35,0-.69-.02-1.03,0-.25-.02-.39-.05-.44-.03-.04-.08-.08-.14-.1-.07-.02-.25-.04-.56-.04v-.25c.43.02.74.03.93.03.18,0,.5,0,.96-.03v.25c-.31,0-.49.02-.56.04-.07.02-.11.05-.14.09-.03.05-.05.18-.06.38,0,.05,0,.42-.02,1.1v1.3c0,.64-.05,1.08-.13,1.34-.09.25-.25.48-.49.67-.18.14-.41.26-.69.34-.28.08-.59.12-.93.12-.4,0-.74-.05-1.03-.14-.29-.09-.51-.22-.67-.37-.15-.15-.26-.31-.31-.47-.07-.21-.11-.57-.11-1.06v-1.71c0-.35,0-.69-.01-1.03,0-.25-.03-.39-.06-.44-.03-.04-.08-.08-.14-.1-.07-.02-.25-.04-.56-.04h0Z"/><path class="cls-1" d="m35.58,16.33v-.22h.37c.06,0,.1-.02.13-.03.03-.02.05-.04.07-.06.03-.05.05-.14.05-.28,0-.03,0-.4.02-1.11v-.46c0-.21,0-.43-.01-.67,0-.15-.02-.24-.04-.27-.02-.03-.04-.05-.09-.06-.04-.01-.21-.02-.5-.02v-.22c.52-.07.9-.17,1.14-.28.05-.03.09-.04.1-.04s.03,0,.04.02c.01.01.02.03.02.06,0,.02,0,.04,0,.06,0,.09-.02.29-.02.59l.72-.62c.21-.08.41-.12.6-.12.21,0,.41.04.59.13.19.09.33.19.42.32.09.13.16.29.19.49.02.12.03.44.03.97v.68c0,.34,0,.57.03.69.01.08.03.13.06.16.03.03.07.05.13.06h.41v.23c-.25-.02-.46-.03-.63-.03-.14,0-.38,0-.72.03.04-.64.05-1.04.05-1.21v-.65c0-.41-.02-.67-.05-.8-.04-.17-.14-.31-.3-.42-.16-.11-.34-.16-.56-.16-.19,0-.37.05-.53.14-.16.09-.27.2-.34.32-.07.12-.1.32-.1.61v.47c.01.67.02,1.04.02,1.09,0,.13.02.22.05.28.01.02.03.04.05.06.02.02.05.03.1.04.02,0,.16,0,.43.01v.22c-.32-.02-.6-.03-.86-.03-.22,0-.57,0-1.06.03h0Z"/><path class="cls-1" d="m41.21,10.88c.12,0,.22.04.31.13.08.08.13.19.13.31s-.04.22-.13.31c-.09.08-.19.13-.31.13s-.22-.04-.31-.13c-.09-.09-.13-.19-.13-.31s.04-.23.13-.31c.09-.09.19-.13.31-.13h0Zm-.95,2.27v-.22c.5-.06.92-.17,1.26-.33l.08.06c-.02.55-.03.97-.03,1.26v.7c.01.67.02,1.04.02,1.09,0,.13.02.22.04.28.01.02.03.04.05.06.02.02.05.03.09.04.01,0,.16,0,.43.01v.22c-.39-.02-.71-.03-.94-.03-.21,0-.54,0-1.02.03v-.22h.37c.05,0,.1-.02.13-.03.03-.02.05-.04.07-.06.03-.05.05-.14.05-.28,0-.03,0-.4.02-1.11v-.68c0-.39-.01-.61-.04-.69-.02-.04-.04-.07-.08-.09-.04-.02-.21-.03-.52-.03h0Z"/><path class="cls-1" d="m44.38,16.37c-.1-.26-.17-.44-.21-.53l-.32-.74-.79-1.85c-.05-.12-.1-.19-.13-.23-.04-.04-.08-.06-.12-.07-.04-.01-.13-.02-.29-.02v-.23c.43.02.74.03.94.03.22,0,.51,0,.89-.03v.23c-.28,0-.44.03-.49.05-.05.03-.07.07-.07.12,0,.08.05.24.16.5l.47,1.18.11.26c.13.31.21.51.26.62l.39-.88c.02-.05.14-.34.35-.87.12-.31.21-.54.25-.71.01-.04.02-.08.02-.12,0-.04-.02-.08-.05-.09-.06-.03-.23-.05-.5-.06v-.23c.39.02.63.03.74.03.09,0,.34,0,.74-.03v.23c-.16,0-.27.03-.32.06-.05.03-.1.09-.16.18-.04.06-.18.34-.42.84l-.37.79c-.06.14-.29.67-.67,1.58h-.4Z"/><path class="cls-1" d="m47.82,14.15c.07,0,.21.02.41.02.38.01.65.02.79.02.34,0,.57,0,.68-.02,0-.06,0-.11,0-.14,0-.41-.08-.71-.25-.9-.17-.19-.39-.29-.66-.29-.29,0-.53.1-.71.31-.18.21-.27.54-.27.99h0Zm2.48,1.58l-.12.28c-.18.11-.31.18-.39.22-.12.05-.26.1-.42.14-.16.04-.32.06-.49.06-.34,0-.65-.07-.93-.21-.28-.14-.49-.35-.65-.64-.15-.28-.23-.61-.23-.99,0-.3.04-.56.12-.8.08-.24.17-.42.28-.53.08-.08.19-.18.35-.29.16-.11.31-.19.47-.25.2-.09.43-.13.66-.13.29,0,.55.07.79.2.23.13.4.31.51.54.11.23.16.49.16.77,0,.07,0,.16-.02.26-.19.04-.35.06-.5.07-.28.02-.56.03-.83.03h-1.24c0,.37.07.67.19.9.12.23.29.4.51.51.22.11.44.16.67.16.16,0,.31-.03.47-.08.16-.05.35-.14.58-.28l.06.07h0Z"/><path class="cls-1" d="m50.87,16.33v-.22c.29,0,.45-.01.48-.02.05,0,.08-.02.1-.04.02-.02.04-.04.05-.07.03-.06.04-.15.05-.28.01-.69.02-1.05.02-1.08v-.46c0-.21,0-.43-.01-.67,0-.15-.02-.24-.03-.27-.02-.03-.05-.05-.09-.06-.04-.01-.21-.02-.51-.02v-.22c.52-.07.9-.17,1.14-.28.05-.03.09-.04.1-.04s.03,0,.04.02c0,.01.02.03.02.06,0,.02,0,.04,0,.06-.01.16-.02.4-.02.73.12-.13.22-.27.32-.4.1-.13.17-.22.21-.26.08-.07.17-.12.27-.16.1-.04.21-.06.31-.06s.22.02.32.07l.02.05c-.04.34-.06.65-.07.91h-.17c-.06-.12-.13-.21-.21-.27-.08-.06-.18-.09-.3-.09-.2,0-.37.08-.51.25-.14.17-.21.41-.21.74v.4c0,.17,0,.48.02.93,0,.16,0,.26.02.31.01.04.02.08.04.09.02.02.04.04.08.05.08.02.29.05.63.07v.22c-.45-.02-.84-.03-1.16-.03s-.65,0-.96.03h0Z"/><path class="cls-1" d="m54.17,15.16h.23c0,.15,0,.27.02.36.01.09.04.17.07.26.03.08.08.16.14.21.07.06.14.1.21.13.08.03.15.05.23.06.08,0,.2.02.36.02.26,0,.48-.07.65-.21.17-.14.26-.33.26-.57,0-.11-.03-.21-.08-.29-.05-.08-.13-.15-.23-.19-.1-.05-.31-.11-.64-.18-.33-.07-.54-.13-.64-.16-.14-.06-.26-.12-.35-.2-.09-.08-.15-.18-.2-.3-.05-.12-.08-.25-.08-.39,0-.2.05-.39.16-.56.11-.17.28-.31.51-.42.23-.11.48-.16.75-.16.16,0,.35.02.57.07.21.05.39.1.52.17-.02.29-.03.58-.04.88h-.22c-.01-.19-.03-.31-.04-.37-.02-.06-.04-.11-.07-.16-.03-.05-.08-.1-.15-.15s-.16-.1-.27-.14c-.11-.04-.25-.06-.4-.06-.23,0-.41.07-.55.2-.14.13-.21.29-.21.47,0,.1.02.19.06.26.04.07.09.13.16.18.07.05.16.09.28.12l.64.16c.33.08.55.15.67.21.12.06.22.15.3.28.08.13.11.28.11.45,0,.35-.14.65-.43.91-.29.26-.67.39-1.16.39-.22,0-.52-.03-.89-.1-.2-.04-.31-.07-.33-.08-.01,0-.02-.02-.02-.04s0-.04,0-.07c.02-.11.04-.22.05-.33,0-.11.01-.33.02-.66h0Z"/><path class="cls-1" d="m58.3,10.88c.12,0,.22.04.31.13.08.08.13.19.13.31s-.04.22-.13.31c-.09.08-.19.13-.31.13s-.23-.04-.31-.13c-.08-.09-.13-.19-.13-.31s.04-.23.13-.31c.09-.09.19-.13.31-.13h0Zm-.95,2.27v-.22c.5-.06.92-.17,1.26-.33l.09.06c-.02.55-.03.97-.03,1.26v.7c.01.67.02,1.04.02,1.09,0,.13.02.22.04.28.01.02.03.04.05.06.02.02.05.03.09.04.02,0,.16,0,.43.01v.22c-.39-.02-.71-.03-.94-.03-.21,0-.54,0-1.02.03v-.22h.37c.05,0,.1-.02.13-.03.03-.02.05-.04.07-.06.03-.05.05-.14.05-.28,0-.03,0-.4.02-1.11v-.68c0-.39-.01-.61-.04-.69-.02-.04-.04-.07-.08-.09-.04-.02-.21-.03-.52-.03h0Z"/><path class="cls-1" d="m59.67,13.3v-.16c.25-.1.45-.19.59-.26v-1.18c.27-.09.49-.19.65-.3l.09.08c-.03.21-.06.69-.09,1.42.21,0,.33,0,.37,0,.02,0,.16,0,.4,0,.13,0,.24,0,.3-.02l.03.03-.08.36c-.16,0-.31,0-.45,0s-.33,0-.57,0l-.02,1.58c0,.38,0,.61,0,.69.01.07.04.14.07.2.04.06.08.1.14.13.06.03.16.06.29.08.11,0,.19,0,.26-.01.07,0,.15-.03.25-.07l.05.15c-.12.1-.24.2-.35.3-.1.04-.19.06-.28.07-.08.01-.18.02-.29.02-.14,0-.25-.01-.33-.05-.08-.03-.15-.07-.22-.13-.07-.06-.12-.13-.17-.21-.05-.08-.07-.22-.09-.4,0-.18,0-.37.02-.58,0-.04,0-.09,0-.14v-1.61h-.16c-.13,0-.27,0-.43.02h0Z"/><path class="cls-1" d="m62.25,18.41l.2-.6h.09s.09.07.13.1c.03.03.07.04.11.06.04.01.1.02.18.02s.16-.02.23-.05c.08-.03.15-.09.21-.16.07-.07.14-.2.24-.39.14-.28.26-.56.37-.85-.08-.23-.18-.49-.3-.78l-.62-1.53c-.18-.45-.33-.8-.45-1.04-.05-.1-.1-.16-.15-.19-.05-.03-.17-.06-.35-.08v-.22c.32.02.64.03.95.03s.6,0,.88-.03v.22c-.27.02-.42.03-.46.05-.07.03-.1.07-.1.14,0,.04.02.12.07.25.1.32.2.59.29.82l.24.6c.15.36.27.66.37.88l.2-.46c.08-.18.22-.53.42-1.03.2-.51.32-.82.35-.94.01-.04.02-.08.02-.11,0-.05-.02-.09-.06-.11-.04-.03-.19-.05-.47-.08v-.23c.3.02.56.03.79.03s.46,0,.69-.03l-.04.23c-.13,0-.23.03-.31.08-.07.05-.18.23-.33.52-.15.29-.42.88-.81,1.74l-.9,2.09c-.14.34-.27.58-.37.72-.11.14-.23.25-.38.33-.15.07-.31.11-.48.11-.09,0-.16-.01-.23-.03-.07-.02-.15-.05-.23-.1h0Z"/><path class="cls-1" d="m69.47,14.26c0,.32.05.64.16.97.11.33.26.57.46.72.2.15.42.23.65.23.3,0,.55-.12.75-.36.2-.24.3-.6.3-1.1,0-.41-.06-.77-.18-1.07-.12-.3-.27-.51-.46-.63-.19-.12-.39-.18-.62-.18-.32,0-.57.11-.77.34-.2.23-.3.59-.3,1.07h0Zm-.73.29c0-.58.18-1.05.55-1.42.37-.37.84-.55,1.42-.55.54,0,.98.17,1.33.51.34.34.51.78.51,1.32,0,.38-.09.72-.26,1.04-.18.31-.42.56-.74.74-.32.18-.67.27-1.06.27-.3,0-.55-.05-.76-.15-.21-.1-.38-.23-.51-.38-.13-.15-.23-.31-.29-.47-.12-.28-.18-.58-.18-.9h0Z"/><path class="cls-1" d="m73.1,13.31v-.16c.2-.08.38-.18.53-.27v-.23c0-.34.02-.57.07-.71.04-.14.1-.26.18-.37.12-.16.3-.36.55-.61.17-.16.29-.26.37-.31.11-.05.23-.08.37-.08.1,0,.2.02.31.05l.02.64-.09.04c-.08-.07-.16-.12-.24-.15-.08-.03-.17-.05-.28-.05-.14,0-.25.03-.34.09-.09.06-.15.14-.19.25-.04.1-.06.32-.06.65v.8h.41c.21,0,.41,0,.61-.03l.04.02-.08.4c-.23,0-.39-.01-.5-.01s-.27,0-.49.01v1.39c0,.17,0,.48.02.93,0,.16,0,.26.02.31.01.04.02.08.04.09.02.02.04.04.08.05.08.02.29.05.63.07v.22c-.6-.02-.97-.03-1.1-.03-.12,0-.45,0-.99.03v-.22h.37c.06,0,.1-.02.13-.03.03-.02.05-.04.07-.06.03-.05.05-.14.06-.28,0-.03,0-.4.02-1.11v-1.35l-.53.03h0Z"/></g></svg>